<svg xmlns="http://www.w3.org/2000/svg" width="101.182" height="31.574" viewBox="0 0 101.182 31.574">
  <path id="Union_1" data-name="Union 1" d="M13.045-828.426c-.1,0-.2-.153-.2-.409v-.152l4.689-29.4c.1-.407.2-.61.355-.61h2.752c.153,0,.2.153.2.408v.153l-4.688,29.4c-.1.407-.2.611-.357.611Zm58.4-3.363c-.306,0-.51-.306-.51-.866l-.611-17.02c0-.051,0-.1-.05-.1s-.051,0-.1.051L66.55-832.6c-.1.509-.356.815-.661.815H64.614c-.306,0-.561-.255-.662-.815l-3.516-17.02c0-.05-.051-.1-.1-.05v.1l-.662,16.867c0,.611-.153.866-.459.866H56.919c-.306,0-.458-.255-.458-.815v-.1l.917-21.911c0-.611.2-.917.509-.917h3.16a.861.861,0,0,1,.509.153.872.872,0,0,1,.306.611l3.362,15.593a.179.179,0,0,0,.051.1h.1c.051,0,.051-.051.051-.1l3.363-15.491c.1-.509.356-.815.763-.815h3.211c.306,0,.458.356.458.916l.918,21.912v.1c0,.509-.153.815-.51.815Zm-24.969,0v-.051a.4.4,0,0,1-.357-.153.886.886,0,0,1-.153-.611v-19.874c0-.254-.051-.407-.2-.407H41.989c-.05,0-.1-.051-.153-.153a1.143,1.143,0,0,1-.05-.459v-1.325a1.032,1.032,0,0,1,.1-.56.5.5,0,0,1,.408-.153H53.556a.394.394,0,0,1,.356.153c.1.1.1.306.1.56v1.325a.945.945,0,0,1-.1.51.661.661,0,0,1-.408.1H50.091c-.153,0-.2.153-.2.407V-832.6a1.053,1.053,0,0,1-.153.662.5.5,0,0,1-.407.153Zm32.459-.051a.394.394,0,0,1-.356-.153c-.1-.1-.1-.306-.1-.611v-22.167a1.279,1.279,0,0,1,.1-.61.459.459,0,0,1,.356-.153h2.956a.394.394,0,0,1,.356.153c.1.1.1.306.1.61V-834.8c0,.254.1.356.254.356h5.2a.594.594,0,0,1,.357.1c.1.1.1.255.1.51v1.325a1.357,1.357,0,0,1-.1.56.432.432,0,0,1-.357.1Zm-43.263,0a.386.386,0,0,1-.255-.05l-.2-.2a1.289,1.289,0,0,1-.1-.509v-10.09c0-.255-.051-.355-.2-.355H28.893c-.153,0-.2.1-.2.355v10.09a.886.886,0,0,1-.153.611.5.5,0,0,1-.408.153H25.275a.5.5,0,0,1-.408-.153c-.1-.1-.1-.306-.1-.611v-22.167a1.283,1.283,0,0,1,.1-.61.5.5,0,0,1,.408-.153H28.18a.5.5,0,0,1,.407.153c.1.1.1.306.1.61v8.765a.387.387,0,0,0,.05.256c.051.1.1.1.153.1h5.963c.05,0,.1-.051.153-.1.05-.1.1-.153.1-.256v-8.765a.885.885,0,0,1,.153-.61.5.5,0,0,1,.407-.153h2.957a.392.392,0,0,1,.355.153c.1.1.1.306.1.61V-832.6a1.281,1.281,0,0,1-.1.611.457.457,0,0,1-.355.153Zm56.715-2.6a.909.909,0,0,1-.2-.509v-1.121a.3.3,0,0,1,.051-.2c0-.051.051-.1.051-.153a.19.19,0,0,0,.05-.153c0-.051.051-.1.1-.153s.1-.1.1-.153.051-.051.1-.153l.153-.152c.051,0,.1-.051.153-.153.1-.051.153-.1.153-.153l4.485-4.586a.44.44,0,0,0,.153-.306.37.37,0,0,0-.2-.306L93.1-847.127a1.34,1.34,0,0,0-.255-.2c-.1-.1-.2-.153-.2-.2l-.153-.153c-.1-.1-.153-.151-.153-.2s-.05-.1-.1-.2-.051-.153-.1-.255v-1.376a.651.651,0,0,1,.2-.509.65.65,0,0,1,.459-.2.82.82,0,0,1,.509.2l5.809,5.656.612.611a1.747,1.747,0,0,1,.306.459,1.558,1.558,0,0,1,.153.661v1.07c0,.051-.05.153-.05.2a.384.384,0,0,0-.051.2c0,.05-.051.1-.1.2a.616.616,0,0,1-.1.153.851.851,0,0,1-.153.2l-.153.152-.2.2c-.1.1-.2.153-.2.2L93.4-834.49a.864.864,0,0,1-.56.255A.5.5,0,0,1,92.385-834.439Zm-85.455,0-5.809-5.605a3.382,3.382,0,0,1-.611-.612,2.134,2.134,0,0,1-.357-.509A1.412,1.412,0,0,1,0-841.828v-.815a1.415,1.415,0,0,1,.153-.662c.153-.2.255-.408.357-.509l.611-.611,5.758-5.758a.859.859,0,0,1,.509-.153.658.658,0,0,1,.51.2.907.907,0,0,1,.2.509v1.173c0,.1-.049.153-.049.2a.386.386,0,0,1-.1.2.623.623,0,0,1-.1.153c0,.051-.051.1-.153.2l-.153.153a.619.619,0,0,0-.2.2c-.1.1-.2.153-.2.2L2.65-842.49c-.1.1-.2.2-.2.306a.368.368,0,0,0,.2.306l4.485,4.433a.711.711,0,0,0,.2.153c.1.1.153.151.2.151l.153.153.153.153c.051.051.051.1.1.153s.051.153.1.2c0,.051.049.153.049.2V-835a.652.652,0,0,1-.2.509.539.539,0,0,1-.459.255A1.106,1.106,0,0,1,6.93-834.439Z" transform="translate(0.5 859.5)" fill="#ee4036" stroke="rgba(0,0,0,0)" stroke-miterlimit="10" stroke-width="1"/>
</svg>
